<svg 
 xmlns="http://www.w3.org/2000/svg"
 xmlns:xlink="http://www.w3.org/1999/xlink"
 width="16px" height="16px">
<path fill-rule="evenodd"  fill="#034ea2"
 d="M14.113,-0.009 L1.886,-0.009 C0.992,-0.009 0.005,1.011 0.005,1.875 L0.005,14.125 C0.005,14.988 0.992,16.008 1.886,16.008 L8.546,16.008 L8.546,9.798 L6.454,9.798 L6.454,7.389 L8.547,7.389 L8.547,5.605 C8.547,3.537 9.807,2.416 11.650,2.416 C12.532,2.416 13.291,2.476 13.512,2.505 L13.512,4.668 L12.234,4.668 C11.232,4.668 11.045,5.145 11.045,5.845 L11.045,7.389 L13.428,7.389 L13.117,9.798 L11.045,9.798 L11.045,16.008 L14.113,16.008 C15.007,16.008 15.995,14.988 15.995,14.125 L15.995,1.875 C15.995,1.011 14.976,-0.009 14.113,-0.009 Z"/>
</svg>
