<svg 
 xmlns="http://www.w3.org/2000/svg"
 xmlns:xlink="http://www.w3.org/1999/xlink"
 width="24px" height="24px">
<path fill-rule="evenodd"  fill="rgb(3, 78, 162)"
 d="M23.701,23.700 C23.324,24.077 22.713,24.077 22.337,23.700 L15.198,16.562 C11.537,19.540 6.143,19.325 2.733,15.914 C-0.907,12.274 -0.907,6.370 2.733,2.730 C6.374,-0.910 12.276,-0.910 15.916,2.730 C19.326,6.140 19.541,11.536 16.563,15.197 L23.701,22.335 C24.078,22.712 24.078,23.324 23.701,23.700 ZM14.680,4.021 C11.738,1.076 6.965,1.076 4.023,4.021 C1.079,6.963 1.079,11.733 4.023,14.678 C6.829,17.485 11.280,17.583 14.241,15.037 C14.270,14.839 14.344,14.647 14.496,14.495 C14.648,14.343 14.840,14.270 15.037,14.240 C17.585,11.278 17.487,6.827 14.680,4.021 Z"/>
</svg>
