<svg 
 xmlns="http://www.w3.org/2000/svg"
 xmlns:xlink="http://www.w3.org/1999/xlink"
 width="20px" height="14px">
<path fill-rule="evenodd"  fill="#034ea2"
 d="M19.796,10.972 C19.796,10.972 19.601,12.343 19.001,12.946 C18.241,13.739 17.389,13.743 16.998,13.789 C14.201,13.990 10.000,13.997 10.000,13.997 C10.000,13.997 4.802,13.950 3.203,13.797 C2.758,13.714 1.759,13.739 0.998,12.946 C0.399,12.343 0.204,10.972 0.204,10.972 C0.204,10.972 0.004,9.361 0.004,7.752 L0.004,6.242 C0.004,4.632 0.204,3.022 0.204,3.022 C0.204,3.022 0.399,1.651 0.998,1.047 C1.759,0.255 2.611,0.251 3.001,0.204 C5.799,0.003 9.996,0.003 9.996,0.003 L10.004,0.003 C10.004,0.003 14.201,0.003 16.998,0.204 C17.389,0.251 18.241,0.255 19.001,1.047 C19.601,1.651 19.796,3.022 19.796,3.022 C19.796,3.022 19.996,4.632 19.996,6.242 L19.996,7.752 C19.996,9.361 19.796,10.972 19.796,10.972 ZM7.964,3.990 L7.964,9.600 L13.327,6.795 L7.964,3.990 Z"/>
</svg>
