<svg 
 xmlns="http://www.w3.org/2000/svg"
 xmlns:xlink="http://www.w3.org/1999/xlink"
 width="28px" height="28px">
<path fill-rule="evenodd"  fill="#034ea2"
 d="M15.457,14.000 L27.743,26.286 C28.098,26.640 28.060,27.252 27.658,27.654 C27.257,28.055 26.643,28.094 26.289,27.740 L14.003,15.454 L1.714,27.743 C1.359,28.097 0.747,28.059 0.346,27.658 C-0.056,27.256 -0.095,26.643 0.259,26.289 L12.549,14.000 L0.267,1.718 C-0.087,1.364 -0.048,0.750 0.353,0.349 C0.755,-0.052 1.367,-0.090 1.721,0.264 L14.003,12.546 L26.282,0.267 C26.636,-0.087 27.249,-0.048 27.650,0.353 C28.052,0.755 28.090,1.367 27.736,1.721 L15.457,14.000 Z"/>
</svg>
