<svg version="1.1" id="Слой_1" xmlns="http://www.w3.org/2000/svg" xmlns:xlink="http://www.w3.org/1999/xlink" x="0px" y="0px"
	 viewBox="0 0 13.8 14">
<g>
	<path fill-rule="evenodd"  fill="rgb(255, 255, 255)" d="M11.1,0H2.6C1.2,0,0.1,1.1,0,2.6v5.8C0,9.9,1.1,11,2.6,11l7.1,0l0.1,0.1c0.4,0.4,1.4,1.6,2,2.4c0.2,0.3,0.6,0.5,1,0.5
		c0.1,0,0.2,0,0.3,0c0.4-0.1,0.7-0.5,0.7-1.1V2.7C13.8,1.2,12.6,0,11.1,0z M12.3,11.7c-0.5-0.6-1.1-1.3-1.4-1.6
		c-0.4-0.6-0.9-0.6-1.2-0.6H2.6C2,9.5,1.5,9.1,1.5,8.4l0-5.7C1.5,2,2,1.5,2.6,1.5h8.5c0.6,0,1.2,0.4,1.2,1.2V11.7z"/>
	<rect fill-rule="evenodd"  fill="rgb(255, 255, 255)" x="3.6" y="4" width="5.7" height="1"/>
	<rect fill-rule="evenodd"  fill="rgb(255, 255, 255)" x="3.6" y="5.9" width="6.6" height="1"/>
</g>
</svg>
