<svg 
 xmlns="http://www.w3.org/2000/svg"
 xmlns:xlink="http://www.w3.org/1999/xlink"
 width="13px" height="13px">
<path fill-rule="evenodd"  fill="rgb(255, 255, 255)"
 d="M12.690,11.285 C13.078,11.672 13.078,12.301 12.690,12.689 C12.302,13.076 11.674,13.076 11.286,12.689 L7.776,9.179 C7.751,9.154 7.742,9.122 7.720,9.095 C5.791,10.384 3.160,10.180 1.457,8.477 C-0.481,6.538 -0.481,3.394 1.457,1.456 C3.396,-0.483 6.539,-0.483 8.478,1.456 C10.180,3.158 10.385,5.790 9.096,7.719 C9.123,7.741 9.155,7.750 9.180,7.774 L12.690,11.285 ZM7.315,2.619 C6.019,1.322 3.916,1.322 2.620,2.619 C1.323,3.916 1.323,6.017 2.620,7.314 C3.916,8.611 6.019,8.611 7.315,7.314 C8.611,6.017 8.611,3.916 7.315,2.619 Z"/>
</svg>
