<svg xmlns="http://www.w3.org/2000/svg" xmlns:xlink="http://www.w3.org/1999/xlink"
	 viewBox="0 0 494.2 494.2">
<path fill-rule="evenodd"  fill="#034ea2" class="st0" d="M378.3,0H115.9C51.9,0,0,51.9,0,115.9v262.4c0,64,51.9,115.9,115.9,115.9h262.4c64,0,115.9-51.9,115.9-115.9
	V115.9C494.2,51.9,442.3,0,378.3,0z M247.1,370.4c-68.1,0-123.3-55.2-123.3-123.3c0-68.1,55.2-123.3,123.3-123.3
	S370.4,179,370.4,247.1C370.4,315.2,315.2,370.4,247.1,370.4z M390.1,141c-20.3,0-36.8-16.5-36.8-36.8c0-20.3,16.5-36.8,36.8-36.8
	c20.3,0,36.8,16.5,36.8,36.8C426.9,124.5,410.4,141,390.1,141z"/>
</svg>
